<?xml version="1.0" encoding="UTF-8" standalone="no"?>
<!DOCTYPE svg PUBLIC "-//W3C//DTD SVG 1.1//EN"
 "http://www.w3.org/Graphics/SVG/1.1/DTD/svg11.dtd">
<!-- Generated by graphviz version 2.49.0 (20210829.0051)
 -->
<!-- Title: snakemake_dag Pages: 1 -->
<svg width="736pt" height="1124pt"
 viewBox="0.00 0.00 735.50 1124.00" xmlns="http://www.w3.org/2000/svg" xmlns:xlink="http://www.w3.org/1999/xlink">
<g id="graph0" class="graph" transform="scale(1 1) rotate(0) translate(4 1120)">
<title>snakemake_dag</title>
<polygon fill="white" stroke="transparent" points="-4,4 -4,-1120 731.5,-1120 731.5,4 -4,4"/>
<!-- 0 -->
<g id="node1" class="node">
<title>0</title>
<path fill="none" stroke="#d89556" stroke-width="2" d="M113.5,-36C113.5,-36 83.5,-36 83.5,-36 77.5,-36 71.5,-30 71.5,-24 71.5,-24 71.5,-12 71.5,-12 71.5,-6 77.5,0 83.5,0 83.5,0 113.5,0 113.5,0 119.5,0 125.5,-6 125.5,-12 125.5,-12 125.5,-24 125.5,-24 125.5,-30 119.5,-36 113.5,-36"/>
<text text-anchor="middle" x="98.5" y="-15.5" font-family="sans" font-size="10.00">all</text>
</g>
<!-- 1 -->
<g id="node2" class="node">
<title>1</title>
<path fill="none" stroke="#59d856" stroke-width="2" d="M242,-108C242,-108 177,-108 177,-108 171,-108 165,-102 165,-96 165,-96 165,-84 165,-84 165,-78 171,-72 177,-72 177,-72 242,-72 242,-72 248,-72 254,-78 254,-84 254,-84 254,-96 254,-96 254,-102 248,-108 242,-108"/>
<text text-anchor="middle" x="209.5" y="-87.5" font-family="sans" font-size="10.00">de_edger_noRi</text>
</g>
<!-- 1&#45;&gt;0 -->
<g id="edge1" class="edge">
<title>1&#45;&gt;0</title>
<path fill="none" stroke="grey" stroke-width="2" d="M182.35,-71.88C167.97,-62.81 150.12,-51.55 134.59,-41.76"/>
<polygon fill="grey" stroke="grey" stroke-width="2" points="136.08,-38.56 125.76,-36.19 132.35,-44.48 136.08,-38.56"/>
</g>
<!-- 2 -->
<g id="node3" class="node">
<title>2</title>
<path fill="none" stroke="#68d856" stroke-width="2" d="M224.5,-180C224.5,-180 84.5,-180 84.5,-180 78.5,-180 72.5,-174 72.5,-168 72.5,-168 72.5,-156 72.5,-156 72.5,-150 78.5,-144 84.5,-144 84.5,-144 224.5,-144 224.5,-144 230.5,-144 236.5,-150 236.5,-156 236.5,-156 236.5,-168 236.5,-168 236.5,-174 230.5,-180 224.5,-180"/>
<text text-anchor="middle" x="154.5" y="-159.5" font-family="sans" font-size="10.00">build_expression_matrix_noRi</text>
</g>
<!-- 2&#45;&gt;1 -->
<g id="edge3" class="edge">
<title>2&#45;&gt;1</title>
<path fill="none" stroke="grey" stroke-width="2" d="M168.1,-143.7C174.62,-135.39 182.57,-125.28 189.75,-116.14"/>
<polygon fill="grey" stroke="grey" stroke-width="2" points="192.63,-118.13 196.06,-108.1 187.13,-113.81 192.63,-118.13"/>
</g>
<!-- 3 -->
<g id="node4" class="node">
<title>3</title>
<path fill="none" stroke="#5682d8" stroke-width="2" d="M191,-252C191,-252 118,-252 118,-252 112,-252 106,-246 106,-240 106,-240 106,-228 106,-228 106,-222 112,-216 118,-216 118,-216 191,-216 191,-216 197,-216 203,-222 203,-228 203,-228 203,-240 203,-240 203,-246 197,-252 191,-252"/>
<text text-anchor="middle" x="154.5" y="-231.5" font-family="sans" font-size="10.00">abundance_noRi</text>
</g>
<!-- 3&#45;&gt;2 -->
<g id="edge6" class="edge">
<title>3&#45;&gt;2</title>
<path fill="none" stroke="grey" stroke-width="2" d="M154.5,-215.7C154.5,-207.98 154.5,-198.71 154.5,-190.11"/>
<polygon fill="grey" stroke="grey" stroke-width="2" points="158,-190.1 154.5,-180.1 151,-190.1 158,-190.1"/>
</g>
<!-- 4 -->
<g id="node5" class="node">
<title>4</title>
<path fill="none" stroke="#566bd8" stroke-width="2" d="M358.5,-324C358.5,-324 304.5,-324 304.5,-324 298.5,-324 292.5,-318 292.5,-312 292.5,-312 292.5,-300 292.5,-300 292.5,-294 298.5,-288 304.5,-288 304.5,-288 358.5,-288 358.5,-288 364.5,-288 370.5,-294 370.5,-300 370.5,-300 370.5,-312 370.5,-312 370.5,-318 364.5,-324 358.5,-324"/>
<text text-anchor="middle" x="331.5" y="-303.5" font-family="sans" font-size="10.00">remove_ribo</text>
</g>
<!-- 4&#45;&gt;1 -->
<g id="edge5" class="edge">
<title>4&#45;&gt;1</title>
<path fill="none" stroke="grey" stroke-width="2" d="M329.27,-288C324.51,-256.9 311.02,-189.85 278.5,-144 270.35,-132.51 258.99,-122.36 247.83,-114.1"/>
<polygon fill="grey" stroke="grey" stroke-width="2" points="249.58,-111.06 239.39,-108.16 245.55,-116.78 249.58,-111.06"/>
</g>
<!-- 4&#45;&gt;3 -->
<g id="edge7" class="edge">
<title>4&#45;&gt;3</title>
<path fill="none" stroke="grey" stroke-width="2" d="M292.22,-289.46C267.16,-279.56 234.39,-266.6 207.11,-255.8"/>
<polygon fill="grey" stroke="grey" stroke-width="2" points="208.29,-252.51 197.7,-252.09 205.72,-259.02 208.29,-252.51"/>
</g>
<!-- 5 -->
<g id="node6" class="node">
<title>5</title>
<path fill="none" stroke="#d85656" stroke-width="2" d="M304.5,-396C304.5,-396 260.5,-396 260.5,-396 254.5,-396 248.5,-390 248.5,-384 248.5,-384 248.5,-372 248.5,-372 248.5,-366 254.5,-360 260.5,-360 260.5,-360 304.5,-360 304.5,-360 310.5,-360 316.5,-366 316.5,-372 316.5,-372 316.5,-384 316.5,-384 316.5,-390 310.5,-396 304.5,-396"/>
<text text-anchor="middle" x="282.5" y="-375.5" font-family="sans" font-size="10.00">run_GOset</text>
</g>
<!-- 5&#45;&gt;1 -->
<g id="edge4" class="edge">
<title>5&#45;&gt;1</title>
<path fill="none" stroke="grey" stroke-width="2" d="M282.31,-359.96C281.33,-320.53 275.81,-220.54 245.5,-144 241.67,-134.33 235.83,-124.65 229.97,-116.26"/>
<polygon fill="grey" stroke="grey" stroke-width="2" points="232.67,-114.03 223.93,-108.04 227.03,-118.17 232.67,-114.03"/>
</g>
<!-- 5&#45;&gt;4 -->
<g id="edge11" class="edge">
<title>5&#45;&gt;4</title>
<path fill="none" stroke="grey" stroke-width="2" d="M294.61,-359.7C300.37,-351.47 307.36,-341.48 313.71,-332.42"/>
<polygon fill="grey" stroke="grey" stroke-width="2" points="316.66,-334.3 319.53,-324.1 310.92,-330.29 316.66,-334.3"/>
</g>
<!-- 6 -->
<g id="node7" class="node">
<title>6</title>
<path fill="none" stroke="#569ad8" stroke-width="2" d="M354,-468C354,-468 285,-468 285,-468 279,-468 273,-462 273,-456 273,-456 273,-444 273,-444 273,-438 279,-432 285,-432 285,-432 354,-432 354,-432 360,-432 366,-438 366,-444 366,-444 366,-456 366,-456 366,-462 360,-468 354,-468"/>
<text text-anchor="middle" x="319.5" y="-447.5" font-family="sans" font-size="10.00">trinotate_report</text>
</g>
<!-- 6&#45;&gt;5 -->
<g id="edge14" class="edge">
<title>6&#45;&gt;5</title>
<path fill="none" stroke="grey" stroke-width="2" d="M310.35,-431.7C306.1,-423.64 300.94,-413.89 296.23,-404.98"/>
<polygon fill="grey" stroke="grey" stroke-width="2" points="299.31,-403.31 291.54,-396.1 293.12,-406.58 299.31,-403.31"/>
</g>
<!-- 7 -->
<g id="node8" class="node">
<title>7</title>
<path fill="none" stroke="#d8ac56" stroke-width="2" d="M358,-540C358,-540 297,-540 297,-540 291,-540 285,-534 285,-528 285,-528 285,-516 285,-516 285,-510 291,-504 297,-504 297,-504 358,-504 358,-504 364,-504 370,-510 370,-516 370,-516 370,-528 370,-528 370,-534 364,-540 358,-540"/>
<text text-anchor="middle" x="327.5" y="-519.5" font-family="sans" font-size="10.00">trinotate_load</text>
</g>
<!-- 7&#45;&gt;4 -->
<g id="edge13" class="edge">
<title>7&#45;&gt;4</title>
<path fill="none" stroke="grey" stroke-width="2" d="M349.21,-503.79C359.26,-494.41 370.14,-481.9 375.5,-468 393.34,-421.74 367.67,-365.39 348.69,-333.11"/>
<polygon fill="grey" stroke="grey" stroke-width="2" points="351.5,-331 343.31,-324.29 345.53,-334.65 351.5,-331"/>
</g>
<!-- 7&#45;&gt;5 -->
<g id="edge16" class="edge">
<title>7&#45;&gt;5</title>
<path fill="none" stroke="grey" stroke-width="2" d="M297.2,-503.8C284.62,-494.9 271.38,-482.77 264.5,-468 255.25,-448.13 261.35,-423.6 268.86,-405.32"/>
<polygon fill="grey" stroke="grey" stroke-width="2" points="272.08,-406.7 272.97,-396.14 265.69,-403.84 272.08,-406.7"/>
</g>
<!-- 7&#45;&gt;6 -->
<g id="edge18" class="edge">
<title>7&#45;&gt;6</title>
<path fill="none" stroke="grey" stroke-width="2" d="M325.52,-503.7C324.64,-495.98 323.58,-486.71 322.6,-478.11"/>
<polygon fill="grey" stroke="grey" stroke-width="2" points="326.07,-477.64 321.45,-468.1 319.11,-478.44 326.07,-477.64"/>
</g>
<!-- 8 -->
<g id="node9" class="node">
<title>8</title>
<path fill="none" stroke="#afd856" stroke-width="2" d="M489.5,-756C489.5,-756 373.5,-756 373.5,-756 367.5,-756 361.5,-750 361.5,-744 361.5,-744 361.5,-732 361.5,-732 361.5,-726 367.5,-720 373.5,-720 373.5,-720 489.5,-720 489.5,-720 495.5,-720 501.5,-726 501.5,-732 501.5,-732 501.5,-744 501.5,-744 501.5,-750 495.5,-756 489.5,-756"/>
<text text-anchor="middle" x="431.5" y="-735.5" font-family="sans" font-size="10.00">trinity_assembly_denovo</text>
</g>
<!-- 8&#45;&gt;4 -->
<g id="edge12" class="edge">
<title>8&#45;&gt;4</title>
<path fill="none" stroke="grey" stroke-width="2" d="M501.66,-728.71C578.06,-715.31 689.5,-681.02 689.5,-595 689.5,-595 689.5,-595 689.5,-449 689.5,-383.37 479,-334.9 380.82,-315.86"/>
<polygon fill="grey" stroke="grey" stroke-width="2" points="381.32,-312.39 370.84,-313.95 380,-319.26 381.32,-312.39"/>
</g>
<!-- 8&#45;&gt;5 -->
<g id="edge15" class="edge">
<title>8&#45;&gt;5</title>
<path fill="none" stroke="grey" stroke-width="2" d="M501.71,-722.59C566.1,-704.79 651.5,-667.51 651.5,-595 651.5,-595 651.5,-595 651.5,-521 651.5,-452.05 424.27,-403.87 326.44,-386.32"/>
<polygon fill="grey" stroke="grey" stroke-width="2" points="327.01,-382.87 316.55,-384.58 325.79,-389.76 327.01,-382.87"/>
</g>
<!-- 8&#45;&gt;7 -->
<g id="edge19" class="edge">
<title>8&#45;&gt;7</title>
<path fill="none" stroke="grey" stroke-width="2" d="M402.85,-719.82C349.36,-687.61 239.22,-620.59 234.5,-612 226.79,-597.98 226.46,-589.83 234.5,-576 243.63,-560.28 259.36,-548.84 275.31,-540.7"/>
<polygon fill="grey" stroke="grey" stroke-width="2" points="277.13,-543.71 284.68,-536.28 274.14,-537.38 277.13,-543.71"/>
</g>
<!-- 18 -->
<g id="node19" class="node">
<title>18</title>
<path fill="none" stroke="#56d86b" stroke-width="2" d="M459.5,-684C459.5,-684 403.5,-684 403.5,-684 397.5,-684 391.5,-678 391.5,-672 391.5,-672 391.5,-660 391.5,-660 391.5,-654 397.5,-648 403.5,-648 403.5,-648 459.5,-648 459.5,-648 465.5,-648 471.5,-654 471.5,-660 471.5,-660 471.5,-672 471.5,-672 471.5,-678 465.5,-684 459.5,-684"/>
<text text-anchor="middle" x="431.5" y="-663.5" font-family="sans" font-size="10.00">transdecoder</text>
</g>
<!-- 8&#45;&gt;18 -->
<g id="edge34" class="edge">
<title>8&#45;&gt;18</title>
<path fill="none" stroke="grey" stroke-width="2" d="M431.5,-719.7C431.5,-711.98 431.5,-702.71 431.5,-694.11"/>
<polygon fill="grey" stroke="grey" stroke-width="2" points="435,-694.1 431.5,-684.1 428,-694.1 435,-694.1"/>
</g>
<!-- 20 -->
<g id="node21" class="node">
<title>20</title>
<path fill="none" stroke="#97d856" stroke-width="2" d="M261.5,-684C261.5,-684 191.5,-684 191.5,-684 185.5,-684 179.5,-678 179.5,-672 179.5,-672 179.5,-660 179.5,-660 179.5,-654 185.5,-648 191.5,-648 191.5,-648 261.5,-648 261.5,-648 267.5,-648 273.5,-654 273.5,-660 273.5,-660 273.5,-672 273.5,-672 273.5,-678 267.5,-684 261.5,-684"/>
<text text-anchor="middle" x="226.5" y="-663.5" font-family="sans" font-size="10.00">trinotate_blastx</text>
</g>
<!-- 8&#45;&gt;20 -->
<g id="edge36" class="edge">
<title>8&#45;&gt;20</title>
<path fill="none" stroke="grey" stroke-width="2" d="M381.61,-719.97C351.99,-709.85 314.32,-696.99 283.53,-686.47"/>
<polygon fill="grey" stroke="grey" stroke-width="2" points="284.38,-683.07 273.79,-683.15 282.12,-689.69 284.38,-683.07"/>
</g>
<!-- 24 -->
<g id="node25" class="node">
<title>24</title>
<path fill="none" stroke="#d6d856" stroke-width="2" d="M149.5,-684C149.5,-684 103.5,-684 103.5,-684 97.5,-684 91.5,-678 91.5,-672 91.5,-672 91.5,-660 91.5,-660 91.5,-654 97.5,-648 103.5,-648 103.5,-648 149.5,-648 149.5,-648 155.5,-648 161.5,-654 161.5,-660 161.5,-660 161.5,-672 161.5,-672 161.5,-678 155.5,-684 149.5,-684"/>
<text text-anchor="middle" x="126.5" y="-663.5" font-family="sans" font-size="10.00">abundance</text>
</g>
<!-- 8&#45;&gt;24 -->
<g id="edge40" class="edge">
<title>8&#45;&gt;24</title>
<path fill="none" stroke="grey" stroke-width="2" d="M361.28,-722.78C295.19,-709.39 202.66,-690.63 171.72,-683.65"/>
<polygon fill="grey" stroke="grey" stroke-width="2" points="172.41,-680.22 161.87,-681.25 170.75,-687.02 172.41,-680.22"/>
</g>
<!-- 9 -->
<g id="node10" class="node">
<title>9</title>
<path fill="none" stroke="#d8c356" stroke-width="2" d="M480.5,-828C480.5,-828 376.5,-828 376.5,-828 370.5,-828 364.5,-822 364.5,-816 364.5,-816 364.5,-804 364.5,-804 364.5,-798 370.5,-792 376.5,-792 376.5,-792 480.5,-792 480.5,-792 486.5,-792 492.5,-798 492.5,-804 492.5,-804 492.5,-816 492.5,-816 492.5,-822 486.5,-828 480.5,-828"/>
<text text-anchor="middle" x="428.5" y="-807.5" font-family="sans" font-size="10.00">extract_mapped_reads</text>
</g>
<!-- 9&#45;&gt;8 -->
<g id="edge25" class="edge">
<title>9&#45;&gt;8</title>
<path fill="none" stroke="grey" stroke-width="2" d="M429.24,-791.7C429.57,-783.98 429.97,-774.71 430.34,-766.11"/>
<polygon fill="grey" stroke="grey" stroke-width="2" points="433.84,-766.25 430.77,-756.1 426.84,-765.95 433.84,-766.25"/>
</g>
<!-- 10 -->
<g id="node11" class="node">
<title>10</title>
<path fill="none" stroke="#56d8a9" stroke-width="2" d="M274.5,-900C274.5,-900 236.5,-900 236.5,-900 230.5,-900 224.5,-894 224.5,-888 224.5,-888 224.5,-876 224.5,-876 224.5,-870 230.5,-864 236.5,-864 236.5,-864 274.5,-864 274.5,-864 280.5,-864 286.5,-870 286.5,-876 286.5,-876 286.5,-888 286.5,-888 286.5,-894 280.5,-900 274.5,-900"/>
<text text-anchor="middle" x="255.5" y="-879.5" font-family="sans" font-size="10.00">sort_sam</text>
</g>
<!-- 10&#45;&gt;9 -->
<g id="edge26" class="edge">
<title>10&#45;&gt;9</title>
<path fill="none" stroke="grey" stroke-width="2" d="M286.83,-868.32C311.96,-858.16 347.75,-843.67 377.07,-831.81"/>
<polygon fill="grey" stroke="grey" stroke-width="2" points="378.38,-835.06 386.34,-828.06 375.75,-828.57 378.38,-835.06"/>
</g>
<!-- 11 -->
<g id="node12" class="node">
<title>11</title>
<path fill="none" stroke="#56d882" stroke-width="2" d="M293.5,-972C293.5,-972 179.5,-972 179.5,-972 173.5,-972 167.5,-966 167.5,-960 167.5,-960 167.5,-948 167.5,-948 167.5,-942 173.5,-936 179.5,-936 179.5,-936 293.5,-936 293.5,-936 299.5,-936 305.5,-942 305.5,-948 305.5,-948 305.5,-960 305.5,-960 305.5,-966 299.5,-972 293.5,-972"/>
<text text-anchor="middle" x="236.5" y="-951.5" font-family="sans" font-size="10.00">map_all_trimmed_hisat2</text>
</g>
<!-- 11&#45;&gt;10 -->
<g id="edge27" class="edge">
<title>11&#45;&gt;10</title>
<path fill="none" stroke="grey" stroke-width="2" d="M241.2,-935.7C243.31,-927.9 245.86,-918.51 248.22,-909.83"/>
<polygon fill="grey" stroke="grey" stroke-width="2" points="251.62,-910.67 250.86,-900.1 244.86,-908.84 251.62,-910.67"/>
</g>
<!-- 12 -->
<g id="node13" class="node">
<title>12</title>
<path fill="none" stroke="#56a9d8" stroke-width="2" d="M169,-1044C169,-1044 126,-1044 126,-1044 120,-1044 114,-1038 114,-1032 114,-1032 114,-1020 114,-1020 114,-1014 120,-1008 126,-1008 126,-1008 169,-1008 169,-1008 175,-1008 181,-1014 181,-1020 181,-1020 181,-1032 181,-1032 181,-1038 175,-1044 169,-1044"/>
<text text-anchor="middle" x="147.5" y="-1023.5" font-family="sans" font-size="10.00">Trim_raw2</text>
</g>
<!-- 12&#45;&gt;3 -->
<g id="edge8" class="edge">
<title>12&#45;&gt;3</title>
<path fill="none" stroke="grey" stroke-width="2" d="M138.67,-1007.78C117.1,-964.08 63.5,-844.83 63.5,-739 63.5,-739 63.5,-739 63.5,-521 63.5,-421.1 114.54,-310.43 140.17,-261.15"/>
<polygon fill="grey" stroke="grey" stroke-width="2" points="143.36,-262.61 144.93,-252.13 137.17,-259.34 143.36,-262.61"/>
</g>
<!-- 12&#45;&gt;11 -->
<g id="edge28" class="edge">
<title>12&#45;&gt;11</title>
<path fill="none" stroke="grey" stroke-width="2" d="M169.5,-1007.7C180.71,-998.88 194.5,-988.03 206.65,-978.47"/>
<polygon fill="grey" stroke="grey" stroke-width="2" points="209.06,-981.04 214.75,-972.1 204.73,-975.54 209.06,-981.04"/>
</g>
<!-- 12&#45;&gt;24 -->
<g id="edge41" class="edge">
<title>12&#45;&gt;24</title>
<path fill="none" stroke="grey" stroke-width="2" d="M145.92,-1007.97C143.59,-981.33 139.5,-928.19 139.5,-883 139.5,-883 139.5,-883 139.5,-809 139.5,-768.83 134.28,-722.53 130.45,-694.01"/>
<polygon fill="grey" stroke="grey" stroke-width="2" points="133.9,-693.43 129.07,-684 126.97,-694.39 133.9,-693.43"/>
</g>
<!-- 13 -->
<g id="node14" class="node">
<title>13</title>
<path fill="none" stroke="#56d8d8" stroke-width="2" d="M187.5,-1116C187.5,-1116 119.5,-1116 119.5,-1116 113.5,-1116 107.5,-1110 107.5,-1104 107.5,-1104 107.5,-1092 107.5,-1092 107.5,-1086 113.5,-1080 119.5,-1080 119.5,-1080 187.5,-1080 187.5,-1080 193.5,-1080 199.5,-1086 199.5,-1092 199.5,-1092 199.5,-1104 199.5,-1104 199.5,-1110 193.5,-1116 187.5,-1116"/>
<text text-anchor="middle" x="153.5" y="-1101" font-family="sans" font-size="10.00">rename_reads</text>
<text text-anchor="middle" x="153.5" y="-1090" font-family="sans" font-size="10.00">sample: SAC&#45;M</text>
</g>
<!-- 13&#45;&gt;12 -->
<g id="edge31" class="edge">
<title>13&#45;&gt;12</title>
<path fill="none" stroke="grey" stroke-width="2" d="M152.02,-1079.7C151.36,-1071.98 150.56,-1062.71 149.82,-1054.11"/>
<polygon fill="grey" stroke="grey" stroke-width="2" points="153.31,-1053.77 148.97,-1044.1 146.33,-1054.37 153.31,-1053.77"/>
</g>
<!-- 14 -->
<g id="node15" class="node">
<title>14</title>
<path fill="none" stroke="#56a9d8" stroke-width="2" d="M355,-1044C355,-1044 312,-1044 312,-1044 306,-1044 300,-1038 300,-1032 300,-1032 300,-1020 300,-1020 300,-1014 306,-1008 312,-1008 312,-1008 355,-1008 355,-1008 361,-1008 367,-1014 367,-1020 367,-1020 367,-1032 367,-1032 367,-1038 361,-1044 355,-1044"/>
<text text-anchor="middle" x="333.5" y="-1023.5" font-family="sans" font-size="10.00">Trim_raw2</text>
</g>
<!-- 14&#45;&gt;3 -->
<g id="edge9" class="edge">
<title>14&#45;&gt;3</title>
<path fill="none" stroke="grey" stroke-width="2" d="M367.09,-1020.29C462.37,-1005.99 727.5,-959.35 727.5,-883 727.5,-883 727.5,-883 727.5,-377 727.5,-271.91 359.78,-244.07 213.5,-237.15"/>
<polygon fill="grey" stroke="grey" stroke-width="2" points="213.5,-233.64 203.35,-236.68 213.18,-240.64 213.5,-233.64"/>
</g>
<!-- 14&#45;&gt;11 -->
<g id="edge29" class="edge">
<title>14&#45;&gt;11</title>
<path fill="none" stroke="grey" stroke-width="2" d="M309.52,-1007.7C297.19,-998.8 281.98,-987.82 268.65,-978.2"/>
<polygon fill="grey" stroke="grey" stroke-width="2" points="270.36,-975.12 260.2,-972.1 266.26,-980.79 270.36,-975.12"/>
</g>
<!-- 14&#45;&gt;24 -->
<g id="edge42" class="edge">
<title>14&#45;&gt;24</title>
<path fill="none" stroke="grey" stroke-width="2" d="M333.5,-1007.95C333.5,-981.29 333.5,-928.11 333.5,-883 333.5,-883 333.5,-883 333.5,-809 333.5,-769.91 231.84,-715.87 171.01,-687.03"/>
<polygon fill="grey" stroke="grey" stroke-width="2" points="172.15,-683.7 161.61,-682.63 169.18,-690.04 172.15,-683.7"/>
</g>
<!-- 15 -->
<g id="node16" class="node">
<title>15</title>
<path fill="none" stroke="#56d8d8" stroke-width="2" d="M366.5,-1116C366.5,-1116 300.5,-1116 300.5,-1116 294.5,-1116 288.5,-1110 288.5,-1104 288.5,-1104 288.5,-1092 288.5,-1092 288.5,-1086 294.5,-1080 300.5,-1080 300.5,-1080 366.5,-1080 366.5,-1080 372.5,-1080 378.5,-1086 378.5,-1092 378.5,-1092 378.5,-1104 378.5,-1104 378.5,-1110 372.5,-1116 366.5,-1116"/>
<text text-anchor="middle" x="333.5" y="-1101" font-family="sans" font-size="10.00">rename_reads</text>
<text text-anchor="middle" x="333.5" y="-1090" font-family="sans" font-size="10.00">sample: SAC&#45;N</text>
</g>
<!-- 15&#45;&gt;14 -->
<g id="edge32" class="edge">
<title>15&#45;&gt;14</title>
<path fill="none" stroke="grey" stroke-width="2" d="M333.5,-1079.7C333.5,-1071.98 333.5,-1062.71 333.5,-1054.11"/>
<polygon fill="grey" stroke="grey" stroke-width="2" points="337,-1054.1 333.5,-1044.1 330,-1054.1 337,-1054.1"/>
</g>
<!-- 16 -->
<g id="node17" class="node">
<title>16</title>
<path fill="none" stroke="#56a9d8" stroke-width="2" d="M78,-1044C78,-1044 35,-1044 35,-1044 29,-1044 23,-1038 23,-1032 23,-1032 23,-1020 23,-1020 23,-1014 29,-1008 35,-1008 35,-1008 78,-1008 78,-1008 84,-1008 90,-1014 90,-1020 90,-1020 90,-1032 90,-1032 90,-1038 84,-1044 78,-1044"/>
<text text-anchor="middle" x="56.5" y="-1023.5" font-family="sans" font-size="10.00">Trim_raw2</text>
</g>
<!-- 16&#45;&gt;3 -->
<g id="edge10" class="edge">
<title>16&#45;&gt;3</title>
<path fill="none" stroke="grey" stroke-width="2" d="M50.23,-1007.78C41.17,-981.32 25.5,-928.92 25.5,-883 25.5,-883 25.5,-883 25.5,-449 25.5,-370.63 89.74,-296.3 127.55,-259.34"/>
<polygon fill="grey" stroke="grey" stroke-width="2" points="130.38,-261.47 135.19,-252.03 125.54,-256.41 130.38,-261.47"/>
</g>
<!-- 16&#45;&gt;11 -->
<g id="edge30" class="edge">
<title>16&#45;&gt;11</title>
<path fill="none" stroke="grey" stroke-width="2" d="M90.36,-1011.83C116.45,-1001.68 153.04,-987.46 183.07,-975.78"/>
<polygon fill="grey" stroke="grey" stroke-width="2" points="184.52,-978.97 192.57,-972.08 181.99,-972.44 184.52,-978.97"/>
</g>
<!-- 16&#45;&gt;24 -->
<g id="edge43" class="edge">
<title>16&#45;&gt;24</title>
<path fill="none" stroke="grey" stroke-width="2" d="M59.88,-1007.73C71.15,-950.08 107.55,-763.89 121.24,-693.92"/>
<polygon fill="grey" stroke="grey" stroke-width="2" points="124.67,-694.58 123.16,-684.09 117.8,-693.24 124.67,-694.58"/>
</g>
<!-- 17 -->
<g id="node18" class="node">
<title>17</title>
<path fill="none" stroke="#56d8d8" stroke-width="2" d="M77,-1116C77,-1116 12,-1116 12,-1116 6,-1116 0,-1110 0,-1104 0,-1104 0,-1092 0,-1092 0,-1086 6,-1080 12,-1080 12,-1080 77,-1080 77,-1080 83,-1080 89,-1086 89,-1092 89,-1092 89,-1104 89,-1104 89,-1110 83,-1116 77,-1116"/>
<text text-anchor="middle" x="44.5" y="-1101" font-family="sans" font-size="10.00">rename_reads</text>
<text text-anchor="middle" x="44.5" y="-1090" font-family="sans" font-size="10.00">sample: SAC&#45;S</text>
</g>
<!-- 17&#45;&gt;16 -->
<g id="edge33" class="edge">
<title>17&#45;&gt;16</title>
<path fill="none" stroke="grey" stroke-width="2" d="M47.47,-1079.7C48.79,-1071.98 50.38,-1062.71 51.85,-1054.11"/>
<polygon fill="grey" stroke="grey" stroke-width="2" points="55.33,-1054.55 53.57,-1044.1 48.43,-1053.37 55.33,-1054.55"/>
</g>
<!-- 18&#45;&gt;7 -->
<g id="edge20" class="edge">
<title>18&#45;&gt;7</title>
<path fill="none" stroke="grey" stroke-width="2" d="M471.86,-658.72C531.47,-647.77 632.14,-621.85 594.5,-576 567.97,-543.69 450.59,-530.73 380.6,-525.8"/>
<polygon fill="grey" stroke="grey" stroke-width="2" points="380.43,-522.28 370.22,-525.1 379.96,-529.26 380.43,-522.28"/>
</g>
<!-- 19 -->
<g id="node20" class="node">
<title>19</title>
<path fill="none" stroke="#56c1d8" stroke-width="2" d="M325.5,-612C325.5,-612 255.5,-612 255.5,-612 249.5,-612 243.5,-606 243.5,-600 243.5,-600 243.5,-588 243.5,-588 243.5,-582 249.5,-576 255.5,-576 255.5,-576 325.5,-576 325.5,-576 331.5,-576 337.5,-582 337.5,-588 337.5,-588 337.5,-600 337.5,-600 337.5,-606 331.5,-612 325.5,-612"/>
<text text-anchor="middle" x="290.5" y="-591.5" font-family="sans" font-size="10.00">trinotate_blastp</text>
</g>
<!-- 18&#45;&gt;19 -->
<g id="edge35" class="edge">
<title>18&#45;&gt;19</title>
<path fill="none" stroke="grey" stroke-width="2" d="M397.01,-647.88C378.06,-638.47 354.37,-626.71 334.14,-616.67"/>
<polygon fill="grey" stroke="grey" stroke-width="2" points="335.64,-613.5 325.13,-612.19 332.53,-619.77 335.64,-613.5"/>
</g>
<!-- 21 -->
<g id="node22" class="node">
<title>21</title>
<path fill="none" stroke="#56d89a" stroke-width="2" d="M455.5,-612C455.5,-612 367.5,-612 367.5,-612 361.5,-612 355.5,-606 355.5,-600 355.5,-600 355.5,-588 355.5,-588 355.5,-582 361.5,-576 367.5,-576 367.5,-576 455.5,-576 455.5,-576 461.5,-576 467.5,-582 467.5,-588 467.5,-588 467.5,-600 467.5,-600 467.5,-606 461.5,-612 455.5,-612"/>
<text text-anchor="middle" x="411.5" y="-591.5" font-family="sans" font-size="10.00">trinotate_hmmscan</text>
</g>
<!-- 18&#45;&gt;21 -->
<g id="edge37" class="edge">
<title>18&#45;&gt;21</title>
<path fill="none" stroke="grey" stroke-width="2" d="M426.56,-647.7C424.33,-639.9 421.65,-630.51 419.17,-621.83"/>
<polygon fill="grey" stroke="grey" stroke-width="2" points="422.5,-620.76 416.39,-612.1 415.77,-622.68 422.5,-620.76"/>
</g>
<!-- 22 -->
<g id="node23" class="node">
<title>22</title>
<path fill="none" stroke="#56d8c1" stroke-width="2" d="M573,-612C573,-612 498,-612 498,-612 492,-612 486,-606 486,-600 486,-600 486,-588 486,-588 486,-582 492,-576 498,-576 498,-576 573,-576 573,-576 579,-576 585,-582 585,-588 585,-588 585,-600 585,-600 585,-606 579,-612 573,-612"/>
<text text-anchor="middle" x="535.5" y="-591.5" font-family="sans" font-size="10.00">trinotate_signalp</text>
</g>
<!-- 18&#45;&gt;22 -->
<g id="edge38" class="edge">
<title>18&#45;&gt;22</title>
<path fill="none" stroke="grey" stroke-width="2" d="M456.94,-647.88C470.29,-638.89 486.82,-627.76 501.28,-618.03"/>
<polygon fill="grey" stroke="grey" stroke-width="2" points="503.62,-620.68 509.96,-612.19 499.71,-614.87 503.62,-620.68"/>
</g>
<!-- 19&#45;&gt;7 -->
<g id="edge21" class="edge">
<title>19&#45;&gt;7</title>
<path fill="none" stroke="grey" stroke-width="2" d="M299.65,-575.7C303.9,-567.64 309.06,-557.89 313.77,-548.98"/>
<polygon fill="grey" stroke="grey" stroke-width="2" points="316.88,-550.58 318.46,-540.1 310.69,-547.31 316.88,-550.58"/>
</g>
<!-- 20&#45;&gt;7 -->
<g id="edge22" class="edge">
<title>20&#45;&gt;7</title>
<path fill="none" stroke="grey" stroke-width="2" d="M213.94,-647.96C201.65,-629.03 186.76,-598.19 201.5,-576 206.06,-569.14 242.71,-554.14 275.32,-541.84"/>
<polygon fill="grey" stroke="grey" stroke-width="2" points="276.68,-545.07 284.82,-538.29 274.23,-538.51 276.68,-545.07"/>
</g>
<!-- 21&#45;&gt;7 -->
<g id="edge23" class="edge">
<title>21&#45;&gt;7</title>
<path fill="none" stroke="grey" stroke-width="2" d="M390.74,-575.7C380.26,-566.97 367.39,-556.24 356,-546.75"/>
<polygon fill="grey" stroke="grey" stroke-width="2" points="357.95,-543.82 348.03,-540.1 353.47,-549.19 357.95,-543.82"/>
</g>
<!-- 22&#45;&gt;7 -->
<g id="edge24" class="edge">
<title>22&#45;&gt;7</title>
<path fill="none" stroke="grey" stroke-width="2" d="M485.94,-576.32C454.04,-565.58 412.61,-551.64 380.12,-540.71"/>
<polygon fill="grey" stroke="grey" stroke-width="2" points="380.94,-537.29 370.34,-537.42 378.7,-543.92 380.94,-537.29"/>
</g>
<!-- 23 -->
<g id="node24" class="node">
<title>23</title>
<path fill="none" stroke="#c6d856" stroke-width="2" d="M255,-540C255,-540 142,-540 142,-540 136,-540 130,-534 130,-528 130,-528 130,-516 130,-516 130,-510 136,-504 142,-504 142,-504 255,-504 255,-504 261,-504 267,-510 267,-516 267,-516 267,-528 267,-528 267,-534 261,-540 255,-540"/>
<text text-anchor="middle" x="198.5" y="-519.5" font-family="sans" font-size="10.00">build_expression_matrix</text>
</g>
<!-- 23&#45;&gt;5 -->
<g id="edge17" class="edge">
<title>23&#45;&gt;5</title>
<path fill="none" stroke="grey" stroke-width="2" d="M208.63,-503.87C223.2,-479.24 250.18,-433.64 267.19,-404.88"/>
<polygon fill="grey" stroke="grey" stroke-width="2" points="270.25,-406.58 272.33,-396.19 264.23,-403.01 270.25,-406.58"/>
</g>
<!-- 24&#45;&gt;0 -->
<g id="edge2" class="edge">
<title>24&#45;&gt;0</title>
<path fill="none" stroke="grey" stroke-width="2" d="M119.4,-647.73C96.41,-590.22 25.5,-399.49 25.5,-235 25.5,-235 25.5,-235 25.5,-161 25.5,-116.03 54.81,-71.04 76.29,-44.1"/>
<polygon fill="grey" stroke="grey" stroke-width="2" points="79.02,-46.29 82.66,-36.35 73.61,-41.85 79.02,-46.29"/>
</g>
<!-- 24&#45;&gt;23 -->
<g id="edge39" class="edge">
<title>24&#45;&gt;23</title>
<path fill="none" stroke="grey" stroke-width="2" d="M132.53,-647.83C139.19,-629.58 150.69,-600.08 163.5,-576 168.42,-566.75 174.51,-557.07 180.22,-548.55"/>
<polygon fill="grey" stroke="grey" stroke-width="2" points="183.2,-550.38 185.97,-540.15 177.43,-546.42 183.2,-550.38"/>
</g>
</g>
</svg>
