<?xml version="1.0" encoding="UTF-8" standalone="no"?>
<!DOCTYPE svg PUBLIC "-//W3C//DTD SVG 1.1//EN"
 "http://www.w3.org/Graphics/SVG/1.1/DTD/svg11.dtd">
<!-- Generated by graphviz version 2.49.0 (20210829.0051)
 -->
<!-- Title: snakemake_dag Pages: 1 -->
<svg width="257pt" height="908pt"
 viewBox="0.00 0.00 257.00 908.00" xmlns="http://www.w3.org/2000/svg" xmlns:xlink="http://www.w3.org/1999/xlink">
<g id="graph0" class="graph" transform="scale(1 1) rotate(0) translate(4 904)">
<title>snakemake_dag</title>
<polygon fill="white" stroke="transparent" points="-4,4 -4,-904 253,-904 253,4 -4,4"/>
<!-- 0 -->
<g id="node1" class="node">
<title>0</title>
<path fill="none" stroke="#d85656" stroke-width="2" d="M121,-36C121,-36 91,-36 91,-36 85,-36 79,-30 79,-24 79,-24 79,-12 79,-12 79,-6 85,0 91,0 91,0 121,0 121,0 127,0 133,-6 133,-12 133,-12 133,-24 133,-24 133,-30 127,-36 121,-36"/>
<text text-anchor="middle" x="106" y="-15.5" font-family="sans" font-size="10.00">all</text>
</g>
<!-- 1 -->
<g id="node2" class="node">
<title>1</title>
<path fill="none" stroke="#d87d56" stroke-width="2" d="M121.5,-612C121.5,-612 80.5,-612 80.5,-612 74.5,-612 68.5,-606 68.5,-600 68.5,-600 68.5,-588 68.5,-588 68.5,-582 74.5,-576 80.5,-576 80.5,-576 121.5,-576 121.5,-576 127.5,-576 133.5,-582 133.5,-588 133.5,-588 133.5,-600 133.5,-600 133.5,-606 127.5,-612 121.5,-612"/>
<text text-anchor="middle" x="101" y="-591.5" font-family="sans" font-size="10.00">sam2bam</text>
</g>
<!-- 1&#45;&gt;0 -->
<g id="edge1" class="edge">
<title>1&#45;&gt;0</title>
<path fill="none" stroke="grey" stroke-width="2" d="M72.18,-575.95C59.22,-566.86 44.88,-554.54 36,-540 14.91,-505.49 17,-491.45 17,-451 17,-451 17,-451 17,-161 17,-113.86 52.64,-69.52 78.82,-43.31"/>
<polygon fill="grey" stroke="grey" stroke-width="2" points="81.51,-45.57 86.25,-36.09 76.64,-40.55 81.51,-45.57"/>
</g>
<!-- 9 -->
<g id="node10" class="node">
<title>9</title>
<path fill="none" stroke="#567bd8" stroke-width="2" d="M129,-540C129,-540 57,-540 57,-540 51,-540 45,-534 45,-528 45,-528 45,-516 45,-516 45,-510 51,-504 57,-504 57,-504 129,-504 129,-504 135,-504 141,-510 141,-516 141,-516 141,-528 141,-528 141,-534 135,-540 129,-540"/>
<text text-anchor="middle" x="93" y="-519.5" font-family="sans" font-size="10.00">scaffolding_step</text>
</g>
<!-- 1&#45;&gt;9 -->
<g id="edge13" class="edge">
<title>1&#45;&gt;9</title>
<path fill="none" stroke="grey" stroke-width="2" d="M99.02,-575.7C98.14,-567.98 97.08,-558.71 96.1,-550.11"/>
<polygon fill="grey" stroke="grey" stroke-width="2" points="99.57,-549.64 94.95,-540.1 92.61,-550.44 99.57,-549.64"/>
</g>
<!-- 2 -->
<g id="node3" class="node">
<title>2</title>
<path fill="none" stroke="#56a2d8" stroke-width="2" d="M121,-684C121,-684 81,-684 81,-684 75,-684 69,-678 69,-672 69,-672 69,-660 69,-660 69,-654 75,-648 81,-648 81,-648 121,-648 121,-648 127,-648 133,-654 133,-660 133,-660 133,-672 133,-672 133,-678 127,-684 121,-684"/>
<text text-anchor="middle" x="101" y="-663.5" font-family="sans" font-size="10.00">map_bwa</text>
</g>
<!-- 2&#45;&gt;1 -->
<g id="edge4" class="edge">
<title>2&#45;&gt;1</title>
<path fill="none" stroke="grey" stroke-width="2" d="M101,-647.7C101,-639.98 101,-630.71 101,-622.11"/>
<polygon fill="grey" stroke="grey" stroke-width="2" points="104.5,-622.1 101,-612.1 97.5,-622.1 104.5,-622.1"/>
</g>
<!-- 3 -->
<g id="node4" class="node">
<title>3</title>
<path fill="none" stroke="#59d856" stroke-width="2" d="M80.5,-756C80.5,-756 17.5,-756 17.5,-756 11.5,-756 5.5,-750 5.5,-744 5.5,-744 5.5,-732 5.5,-732 5.5,-726 11.5,-720 17.5,-720 17.5,-720 80.5,-720 80.5,-720 86.5,-720 92.5,-726 92.5,-732 92.5,-732 92.5,-744 92.5,-744 92.5,-750 86.5,-756 80.5,-756"/>
<text text-anchor="middle" x="49" y="-735.5" font-family="sans" font-size="10.00">flye_assembly</text>
</g>
<!-- 3&#45;&gt;2 -->
<g id="edge5" class="edge">
<title>3&#45;&gt;2</title>
<path fill="none" stroke="grey" stroke-width="2" d="M61.85,-719.7C68.03,-711.39 75.54,-701.28 82.32,-692.14"/>
<polygon fill="grey" stroke="grey" stroke-width="2" points="85.14,-694.22 88.29,-684.1 79.52,-690.04 85.14,-694.22"/>
</g>
<!-- 3&#45;&gt;9 -->
<g id="edge12" class="edge">
<title>3&#45;&gt;9</title>
<path fill="none" stroke="grey" stroke-width="2" d="M47.28,-719.55C44.91,-689.41 42.63,-626.04 59,-576 62.1,-566.54 67.29,-557.1 72.7,-548.87"/>
<polygon fill="grey" stroke="grey" stroke-width="2" points="75.71,-550.67 78.57,-540.47 69.97,-546.66 75.71,-550.67"/>
</g>
<!-- 4 -->
<g id="node5" class="node">
<title>4</title>
<path fill="none" stroke="#78d856" stroke-width="2" d="M82,-828C82,-828 16,-828 16,-828 10,-828 4,-822 4,-816 4,-816 4,-804 4,-804 4,-798 10,-792 16,-792 16,-792 82,-792 82,-792 88,-792 94,-798 94,-804 94,-804 94,-816 94,-816 94,-822 88,-828 82,-828"/>
<text text-anchor="middle" x="49" y="-807.5" font-family="sans" font-size="10.00">trim_ont_reads</text>
</g>
<!-- 4&#45;&gt;3 -->
<g id="edge7" class="edge">
<title>4&#45;&gt;3</title>
<path fill="none" stroke="grey" stroke-width="2" d="M49,-791.7C49,-783.98 49,-774.71 49,-766.11"/>
<polygon fill="grey" stroke="grey" stroke-width="2" points="52.5,-766.1 49,-756.1 45.5,-766.1 52.5,-766.1"/>
</g>
<!-- 5 -->
<g id="node6" class="node">
<title>5</title>
<path fill="none" stroke="#c6d856" stroke-width="2" d="M86,-900C86,-900 12,-900 12,-900 6,-900 0,-894 0,-888 0,-888 0,-876 0,-876 0,-870 6,-864 12,-864 12,-864 86,-864 86,-864 92,-864 98,-870 98,-876 98,-876 98,-888 98,-888 98,-894 92,-900 86,-900"/>
<text text-anchor="middle" x="49" y="-879.5" font-family="sans" font-size="10.00">filter_long_reads</text>
</g>
<!-- 5&#45;&gt;4 -->
<g id="edge8" class="edge">
<title>5&#45;&gt;4</title>
<path fill="none" stroke="grey" stroke-width="2" d="M49,-863.7C49,-855.98 49,-846.71 49,-838.11"/>
<polygon fill="grey" stroke="grey" stroke-width="2" points="52.5,-838.1 49,-828.1 45.5,-838.1 52.5,-838.1"/>
</g>
<!-- 6 -->
<g id="node7" class="node">
<title>6</title>
<path fill="none" stroke="#56d8a2" stroke-width="2" d="M206.5,-756C206.5,-756 131.5,-756 131.5,-756 125.5,-756 119.5,-750 119.5,-744 119.5,-744 119.5,-732 119.5,-732 119.5,-726 125.5,-720 131.5,-720 131.5,-720 206.5,-720 206.5,-720 212.5,-720 218.5,-726 218.5,-732 218.5,-732 218.5,-744 218.5,-744 218.5,-750 212.5,-756 206.5,-756"/>
<text text-anchor="middle" x="169" y="-735.5" font-family="sans" font-size="10.00">trim_short_reads</text>
</g>
<!-- 6&#45;&gt;2 -->
<g id="edge6" class="edge">
<title>6&#45;&gt;2</title>
<path fill="none" stroke="grey" stroke-width="2" d="M152.19,-719.7C143.87,-711.14 133.69,-700.66 124.61,-691.3"/>
<polygon fill="grey" stroke="grey" stroke-width="2" points="127.09,-688.84 117.62,-684.1 122.07,-693.72 127.09,-688.84"/>
</g>
<!-- 8 -->
<g id="node9" class="node">
<title>8</title>
<path fill="none" stroke="#56d8c9" stroke-width="2" d="M208.5,-468C208.5,-468 119.5,-468 119.5,-468 113.5,-468 107.5,-462 107.5,-456 107.5,-456 107.5,-444 107.5,-444 107.5,-438 113.5,-432 119.5,-432 119.5,-432 208.5,-432 208.5,-432 214.5,-432 220.5,-438 220.5,-444 220.5,-444 220.5,-456 220.5,-456 220.5,-462 214.5,-468 208.5,-468"/>
<text text-anchor="middle" x="164" y="-447.5" font-family="sans" font-size="10.00">map_bwa_scaffolds</text>
</g>
<!-- 6&#45;&gt;8 -->
<g id="edge11" class="edge">
<title>6&#45;&gt;8</title>
<path fill="none" stroke="grey" stroke-width="2" d="M168.7,-719.97C167.87,-672.29 165.51,-537.18 164.48,-478.63"/>
<polygon fill="grey" stroke="grey" stroke-width="2" points="167.98,-478.24 164.3,-468.31 160.98,-478.37 167.98,-478.24"/>
</g>
<!-- 13 -->
<g id="node14" class="node">
<title>13</title>
<path fill="none" stroke="#56d87b" stroke-width="2" d="M165.5,-252C165.5,-252 96.5,-252 96.5,-252 90.5,-252 84.5,-246 84.5,-240 84.5,-240 84.5,-228 84.5,-228 84.5,-222 90.5,-216 96.5,-216 96.5,-216 165.5,-216 165.5,-216 171.5,-216 177.5,-222 177.5,-228 177.5,-228 177.5,-240 177.5,-240 177.5,-246 171.5,-252 165.5,-252"/>
<text text-anchor="middle" x="131" y="-231.5" font-family="sans" font-size="10.00">map_bwa_pilon</text>
</g>
<!-- 6&#45;&gt;13 -->
<g id="edge20" class="edge">
<title>6&#45;&gt;13</title>
<path fill="none" stroke="grey" stroke-width="2" d="M186.36,-719.93C209.89,-694.89 249,-645.65 249,-595 249,-595 249,-595 249,-377 249,-325.44 202.41,-282.6 167.77,-257.89"/>
<polygon fill="grey" stroke="grey" stroke-width="2" points="169.48,-254.82 159.26,-252.01 165.5,-260.57 169.48,-254.82"/>
</g>
<!-- 7 -->
<g id="node8" class="node">
<title>7</title>
<path fill="none" stroke="#56c9d8" stroke-width="2" d="M209,-396C209,-396 119,-396 119,-396 113,-396 107,-390 107,-384 107,-384 107,-372 107,-372 107,-366 113,-360 119,-360 119,-360 209,-360 209,-360 215,-360 221,-366 221,-372 221,-372 221,-384 221,-384 221,-390 215,-396 209,-396"/>
<text text-anchor="middle" x="164" y="-375.5" font-family="sans" font-size="10.00">sam2bam_scaffolds</text>
</g>
<!-- 7&#45;&gt;0 -->
<g id="edge2" class="edge">
<title>7&#45;&gt;0</title>
<path fill="none" stroke="grey" stroke-width="2" d="M172.91,-359.58C185.5,-333.3 207,-281.62 207,-235 207,-235 207,-235 207,-161 207,-112.19 166.89,-68.51 137.22,-42.87"/>
<polygon fill="grey" stroke="grey" stroke-width="2" points="139.09,-39.87 129.17,-36.13 134.59,-45.23 139.09,-39.87"/>
</g>
<!-- 11 -->
<g id="node12" class="node">
<title>11</title>
<path fill="none" stroke="#d8c356" stroke-width="2" d="M131.5,-324C131.5,-324 82.5,-324 82.5,-324 76.5,-324 70.5,-318 70.5,-312 70.5,-312 70.5,-300 70.5,-300 70.5,-294 76.5,-288 82.5,-288 82.5,-288 131.5,-288 131.5,-288 137.5,-288 143.5,-294 143.5,-300 143.5,-300 143.5,-312 143.5,-312 143.5,-318 137.5,-324 131.5,-324"/>
<text text-anchor="middle" x="107" y="-303.5" font-family="sans" font-size="10.00">run_pilon_1</text>
</g>
<!-- 7&#45;&gt;11 -->
<g id="edge17" class="edge">
<title>7&#45;&gt;11</title>
<path fill="none" stroke="grey" stroke-width="2" d="M149.91,-359.7C143.08,-351.3 134.74,-341.07 127.24,-331.86"/>
<polygon fill="grey" stroke="grey" stroke-width="2" points="129.96,-329.65 120.93,-324.1 124.53,-334.07 129.96,-329.65"/>
</g>
<!-- 8&#45;&gt;7 -->
<g id="edge9" class="edge">
<title>8&#45;&gt;7</title>
<path fill="none" stroke="grey" stroke-width="2" d="M164,-431.7C164,-423.98 164,-414.71 164,-406.11"/>
<polygon fill="grey" stroke="grey" stroke-width="2" points="167.5,-406.1 164,-396.1 160.5,-406.1 167.5,-406.1"/>
</g>
<!-- 9&#45;&gt;8 -->
<g id="edge10" class="edge">
<title>9&#45;&gt;8</title>
<path fill="none" stroke="grey" stroke-width="2" d="M110.55,-503.7C119.23,-495.14 129.86,-484.66 139.35,-475.3"/>
<polygon fill="grey" stroke="grey" stroke-width="2" points="141.99,-477.62 146.65,-468.1 137.07,-472.63 141.99,-477.62"/>
</g>
<!-- 9&#45;&gt;11 -->
<g id="edge16" class="edge">
<title>9&#45;&gt;11</title>
<path fill="none" stroke="grey" stroke-width="2" d="M92.76,-503.56C92.53,-473.96 92.8,-412.03 98,-360 98.85,-351.51 100.24,-342.33 101.68,-334.03"/>
<polygon fill="grey" stroke="grey" stroke-width="2" points="105.13,-334.57 103.48,-324.11 98.25,-333.32 105.13,-334.57"/>
</g>
<!-- 10 -->
<g id="node11" class="node">
<title>10</title>
<path fill="none" stroke="#d8a456" stroke-width="2" d="M130.5,-108C130.5,-108 81.5,-108 81.5,-108 75.5,-108 69.5,-102 69.5,-96 69.5,-96 69.5,-84 69.5,-84 69.5,-78 75.5,-72 81.5,-72 81.5,-72 130.5,-72 130.5,-72 136.5,-72 142.5,-78 142.5,-84 142.5,-84 142.5,-96 142.5,-96 142.5,-102 136.5,-108 130.5,-108"/>
<text text-anchor="middle" x="106" y="-87.5" font-family="sans" font-size="10.00">run_pilon_2</text>
</g>
<!-- 10&#45;&gt;0 -->
<g id="edge3" class="edge">
<title>10&#45;&gt;0</title>
<path fill="none" stroke="grey" stroke-width="2" d="M106,-71.7C106,-63.98 106,-54.71 106,-46.11"/>
<polygon fill="grey" stroke="grey" stroke-width="2" points="109.5,-46.1 106,-36.1 102.5,-46.1 109.5,-46.1"/>
</g>
<!-- 11&#45;&gt;10 -->
<g id="edge14" class="edge">
<title>11&#45;&gt;10</title>
<path fill="none" stroke="grey" stroke-width="2" d="M93.99,-287.87C87.26,-277.95 79.69,-264.91 76,-252 62.8,-205.84 61.12,-190.25 74,-144 76.67,-134.42 81.59,-124.84 86.78,-116.51"/>
<polygon fill="grey" stroke="grey" stroke-width="2" points="89.8,-118.29 92.44,-108.03 83.98,-114.41 89.8,-118.29"/>
</g>
<!-- 11&#45;&gt;13 -->
<g id="edge19" class="edge">
<title>11&#45;&gt;13</title>
<path fill="none" stroke="grey" stroke-width="2" d="M112.93,-287.7C115.61,-279.9 118.83,-270.51 121.8,-261.83"/>
<polygon fill="grey" stroke="grey" stroke-width="2" points="125.2,-262.7 125.14,-252.1 118.58,-260.43 125.2,-262.7"/>
</g>
<!-- 12 -->
<g id="node13" class="node">
<title>12</title>
<path fill="none" stroke="#9fd856" stroke-width="2" d="M166.5,-180C166.5,-180 95.5,-180 95.5,-180 89.5,-180 83.5,-174 83.5,-168 83.5,-168 83.5,-156 83.5,-156 83.5,-150 89.5,-144 95.5,-144 95.5,-144 166.5,-144 166.5,-144 172.5,-144 178.5,-150 178.5,-156 178.5,-156 178.5,-168 178.5,-168 178.5,-174 172.5,-180 166.5,-180"/>
<text text-anchor="middle" x="131" y="-159.5" font-family="sans" font-size="10.00">sam2bam_pilon</text>
</g>
<!-- 12&#45;&gt;10 -->
<g id="edge15" class="edge">
<title>12&#45;&gt;10</title>
<path fill="none" stroke="grey" stroke-width="2" d="M124.82,-143.7C122,-135.81 118.61,-126.3 115.48,-117.55"/>
<polygon fill="grey" stroke="grey" stroke-width="2" points="118.77,-116.34 112.11,-108.1 112.18,-118.7 118.77,-116.34"/>
</g>
<!-- 13&#45;&gt;12 -->
<g id="edge18" class="edge">
<title>13&#45;&gt;12</title>
<path fill="none" stroke="grey" stroke-width="2" d="M131,-215.7C131,-207.98 131,-198.71 131,-190.11"/>
<polygon fill="grey" stroke="grey" stroke-width="2" points="134.5,-190.1 131,-180.1 127.5,-190.1 134.5,-190.1"/>
</g>
</g>
</svg>
