<?xml version="1.0" encoding="UTF-8" standalone="no"?>
<!DOCTYPE svg PUBLIC "-//W3C//DTD SVG 1.1//EN"
 "http://www.w3.org/Graphics/SVG/1.1/DTD/svg11.dtd">
<!-- Generated by graphviz version 2.49.0 (20210829.0051)
 -->
<!-- Title: snakemake_dag Pages: 1 -->
<svg width="1105pt" height="548pt"
 viewBox="0.00 0.00 1105.00 548.00" xmlns="http://www.w3.org/2000/svg" xmlns:xlink="http://www.w3.org/1999/xlink">
<g id="graph0" class="graph" transform="scale(1 1) rotate(0) translate(4 544)">
<title>snakemake_dag</title>
<polygon fill="white" stroke="transparent" points="-4,4 -4,-544 1101,-544 1101,4 -4,4"/>
<!-- 0 -->
<g id="node1" class="node">
<title>0</title>
<path fill="none" stroke="#d8cb56" stroke-width="2" stroke-dasharray="1,5" d="M195.5,-36C195.5,-36 165.5,-36 165.5,-36 159.5,-36 153.5,-30 153.5,-24 153.5,-24 153.5,-12 153.5,-12 153.5,-6 159.5,0 165.5,0 165.5,0 195.5,0 195.5,0 201.5,0 207.5,-6 207.5,-12 207.5,-12 207.5,-24 207.5,-24 207.5,-30 201.5,-36 195.5,-36"/>
<text text-anchor="middle" x="180.5" y="-15.5" font-family="sans" font-size="10.00">all</text>
</g>
<!-- 1 -->
<g id="node2" class="node">
<title>1</title>
<path fill="none" stroke="#56d8d0" stroke-width="2" stroke-dasharray="1,5" d="M236.5,-108C236.5,-108 124.5,-108 124.5,-108 118.5,-108 112.5,-102 112.5,-96 112.5,-96 112.5,-84 112.5,-84 112.5,-78 118.5,-72 124.5,-72 124.5,-72 236.5,-72 236.5,-72 242.5,-72 248.5,-78 248.5,-84 248.5,-84 248.5,-96 248.5,-96 248.5,-102 242.5,-108 236.5,-108"/>
<text text-anchor="middle" x="180.5" y="-87.5" font-family="sans" font-size="10.00">interproscan_orthofinder</text>
</g>
<!-- 1&#45;&gt;0 -->
<g id="edge1" class="edge">
<title>1&#45;&gt;0</title>
<path fill="none" stroke="grey" stroke-width="2" d="M180.5,-71.7C180.5,-63.98 180.5,-54.71 180.5,-46.11"/>
<polygon fill="grey" stroke="grey" stroke-width="2" points="184,-46.1 180.5,-36.1 177,-46.1 184,-46.1"/>
</g>
<!-- 2 -->
<g id="node3" class="node">
<title>2</title>
<path fill="none" stroke="#56a2d8" stroke-width="2" d="M223,-180C223,-180 138,-180 138,-180 132,-180 126,-174 126,-168 126,-168 126,-156 126,-156 126,-150 132,-144 138,-144 138,-144 223,-144 223,-144 229,-144 235,-150 235,-156 235,-156 235,-168 235,-168 235,-174 229,-180 223,-180"/>
<text text-anchor="middle" x="180.5" y="-165" font-family="sans" font-size="10.00">extend_orthofinder</text>
<text text-anchor="middle" x="180.5" y="-154" font-family="sans" font-size="10.00">orthogroup: ...</text>
</g>
<!-- 2&#45;&gt;1 -->
<g id="edge2" class="edge">
<title>2&#45;&gt;1</title>
<path fill="none" stroke="grey" stroke-width="2" d="M180.5,-143.7C180.5,-135.98 180.5,-126.71 180.5,-118.11"/>
<polygon fill="grey" stroke="grey" stroke-width="2" points="184,-118.1 180.5,-108.1 177,-118.1 184,-118.1"/>
</g>
<!-- 3 -->
<g id="node4" class="node">
<title>3</title>
<path fill="none" stroke="#d87d56" stroke-width="2" d="M79,-396C79,-396 12,-396 12,-396 6,-396 0,-390 0,-384 0,-384 0,-372 0,-372 0,-366 6,-360 12,-360 12,-360 79,-360 79,-360 85,-360 91,-366 91,-372 91,-372 91,-384 91,-384 91,-390 85,-396 79,-396"/>
<text text-anchor="middle" x="45.5" y="-375.5" font-family="sans" font-size="10.00">run_orthofinder</text>
</g>
<!-- 3&#45;&gt;2 -->
<g id="edge3" class="edge">
<title>3&#45;&gt;2</title>
<path fill="none" stroke="grey" stroke-width="2" d="M56.32,-359.85C79.97,-322.36 136.37,-232.95 164.29,-188.7"/>
<polygon fill="grey" stroke="grey" stroke-width="2" points="167.25,-190.56 169.63,-180.23 161.33,-186.82 167.25,-190.56"/>
</g>
<!-- 14 -->
<g id="node15" class="node">
<title>14</title>
<path fill="none" stroke="#d8b456" stroke-width="2" d="M211,-324C211,-324 128,-324 128,-324 122,-324 116,-318 116,-312 116,-312 116,-300 116,-300 116,-294 122,-288 128,-288 128,-288 211,-288 211,-288 217,-288 223,-294 223,-300 223,-300 223,-312 223,-312 223,-318 217,-324 211,-324"/>
<text text-anchor="middle" x="169.5" y="-303.5" font-family="sans" font-size="10.00">merge_ortho_seqs</text>
</g>
<!-- 3&#45;&gt;14 -->
<g id="edge20" class="edge">
<title>3&#45;&gt;14</title>
<path fill="none" stroke="grey" stroke-width="2" d="M75.83,-359.88C92.2,-350.64 112.58,-339.13 130.15,-329.21"/>
<polygon fill="grey" stroke="grey" stroke-width="2" points="132.06,-332.15 139.05,-324.19 128.62,-326.06 132.06,-332.15"/>
</g>
<!-- 4 -->
<g id="node5" class="node">
<title>4</title>
<path fill="none" stroke="#5692d8" stroke-width="2" d="M469,-252C469,-252 372,-252 372,-252 366,-252 360,-246 360,-240 360,-240 360,-228 360,-228 360,-222 366,-216 372,-216 372,-216 469,-216 469,-216 475,-216 481,-222 481,-228 481,-228 481,-240 481,-240 481,-246 475,-252 469,-252"/>
<text text-anchor="middle" x="420.5" y="-231.5" font-family="sans" font-size="10.00">funannotate_predict2</text>
</g>
<!-- 4&#45;&gt;2 -->
<g id="edge4" class="edge">
<title>4&#45;&gt;2</title>
<path fill="none" stroke="grey" stroke-width="2" d="M362.1,-215.97C326.71,-205.65 281.52,-192.47 245.08,-181.83"/>
<polygon fill="grey" stroke="grey" stroke-width="2" points="245.62,-178.35 235.04,-178.91 243.66,-185.07 245.62,-178.35"/>
</g>
<!-- 5 -->
<g id="node6" class="node">
<title>5</title>
<path fill="none" stroke="#56d88a" stroke-width="2" d="M200,-396C200,-396 121,-396 121,-396 115,-396 109,-390 109,-384 109,-384 109,-372 109,-372 109,-366 115,-360 121,-360 121,-360 200,-360 200,-360 206,-360 212,-366 212,-372 212,-372 212,-384 212,-384 212,-390 206,-396 200,-396"/>
<text text-anchor="middle" x="160.5" y="-375.5" font-family="sans" font-size="10.00">funannotate_prep</text>
</g>
<!-- 5&#45;&gt;4 -->
<g id="edge5" class="edge">
<title>5&#45;&gt;4</title>
<path fill="none" stroke="grey" stroke-width="2" d="M182.99,-359.78C208.58,-340.69 252.08,-309.71 292.5,-288 315.03,-275.9 340.92,-264.71 363.49,-255.76"/>
<polygon fill="grey" stroke="grey" stroke-width="2" points="364.91,-258.97 372.95,-252.07 362.36,-252.45 364.91,-258.97"/>
</g>
<!-- 7 -->
<g id="node8" class="node">
<title>7</title>
<path fill="none" stroke="#d6d856" stroke-width="2" d="M393.5,-324C393.5,-324 313.5,-324 313.5,-324 307.5,-324 301.5,-318 301.5,-312 301.5,-312 301.5,-300 301.5,-300 301.5,-294 307.5,-288 313.5,-288 313.5,-288 393.5,-288 393.5,-288 399.5,-288 405.5,-294 405.5,-300 405.5,-300 405.5,-312 405.5,-312 405.5,-318 399.5,-324 393.5,-324"/>
<text text-anchor="middle" x="353.5" y="-303.5" font-family="sans" font-size="10.00">funannotate_train</text>
</g>
<!-- 5&#45;&gt;7 -->
<g id="edge12" class="edge">
<title>5&#45;&gt;7</title>
<path fill="none" stroke="grey" stroke-width="2" d="M207.71,-359.88C234.57,-350.14 268.38,-337.87 296.68,-327.61"/>
<polygon fill="grey" stroke="grey" stroke-width="2" points="298.23,-330.77 306.44,-324.07 295.85,-324.19 298.23,-330.77"/>
</g>
<!-- 6 -->
<g id="node7" class="node">
<title>6</title>
<path fill="none" stroke="#97d856" stroke-width="2" d="M581.5,-396C581.5,-396 497.5,-396 497.5,-396 491.5,-396 485.5,-390 485.5,-384 485.5,-384 485.5,-372 485.5,-372 485.5,-366 491.5,-360 497.5,-360 497.5,-360 581.5,-360 581.5,-360 587.5,-360 593.5,-366 593.5,-372 593.5,-372 593.5,-384 593.5,-384 593.5,-390 587.5,-396 581.5,-396"/>
<text text-anchor="middle" x="539.5" y="-375.5" font-family="sans" font-size="10.00">funannotate_setup</text>
</g>
<!-- 6&#45;&gt;4 -->
<g id="edge6" class="edge">
<title>6&#45;&gt;4</title>
<path fill="none" stroke="grey" stroke-width="2" d="M525.15,-359.87C504.33,-335.03 465.62,-288.85 441.57,-260.14"/>
<polygon fill="grey" stroke="grey" stroke-width="2" points="444.01,-257.61 434.91,-252.19 438.65,-262.1 444.01,-257.61"/>
</g>
<!-- 6&#45;&gt;7 -->
<g id="edge16" class="edge">
<title>6&#45;&gt;7</title>
<path fill="none" stroke="grey" stroke-width="2" d="M494,-359.88C468.12,-350.14 435.53,-337.87 408.26,-327.61"/>
<polygon fill="grey" stroke="grey" stroke-width="2" points="409.44,-324.31 398.85,-324.07 406.98,-330.87 409.44,-324.31"/>
</g>
<!-- 7&#45;&gt;4 -->
<g id="edge7" class="edge">
<title>7&#45;&gt;4</title>
<path fill="none" stroke="grey" stroke-width="2" d="M370.06,-287.7C378.18,-279.22 388.09,-268.86 396.97,-259.58"/>
<polygon fill="grey" stroke="grey" stroke-width="2" points="399.74,-261.75 404.13,-252.1 394.69,-256.91 399.74,-261.75"/>
</g>
<!-- 8 -->
<g id="node9" class="node">
<title>8</title>
<path fill="none" stroke="#567bd8" stroke-width="2" d="M285,-396C285,-396 242,-396 242,-396 236,-396 230,-390 230,-384 230,-384 230,-372 230,-372 230,-366 236,-360 242,-360 242,-360 285,-360 285,-360 291,-360 297,-366 297,-372 297,-372 297,-384 297,-384 297,-390 291,-396 285,-396"/>
<text text-anchor="middle" x="263.5" y="-375.5" font-family="sans" font-size="10.00">Trim_raw2</text>
</g>
<!-- 8&#45;&gt;7 -->
<g id="edge13" class="edge">
<title>8&#45;&gt;7</title>
<path fill="none" stroke="grey" stroke-width="2" d="M285.75,-359.7C297.08,-350.88 311.03,-340.03 323.32,-330.47"/>
<polygon fill="grey" stroke="grey" stroke-width="2" points="325.76,-333.01 331.51,-324.1 321.47,-327.48 325.76,-333.01"/>
</g>
<!-- 9 -->
<g id="node10" class="node">
<title>9</title>
<path fill="none" stroke="#56b9d8" stroke-width="2" d="M273.5,-468C273.5,-468 205.5,-468 205.5,-468 199.5,-468 193.5,-462 193.5,-456 193.5,-456 193.5,-444 193.5,-444 193.5,-438 199.5,-432 205.5,-432 205.5,-432 273.5,-432 273.5,-432 279.5,-432 285.5,-438 285.5,-444 285.5,-444 285.5,-456 285.5,-456 285.5,-462 279.5,-468 273.5,-468"/>
<text text-anchor="middle" x="239.5" y="-453" font-family="sans" font-size="10.00">rename_reads</text>
<text text-anchor="middle" x="239.5" y="-442" font-family="sans" font-size="10.00">sample: SAC&#45;M</text>
</g>
<!-- 9&#45;&gt;8 -->
<g id="edge17" class="edge">
<title>9&#45;&gt;8</title>
<path fill="none" stroke="grey" stroke-width="2" d="M245.43,-431.7C248.11,-423.9 251.33,-414.51 254.3,-405.83"/>
<polygon fill="grey" stroke="grey" stroke-width="2" points="257.7,-406.7 257.64,-396.1 251.08,-404.43 257.7,-406.7"/>
</g>
<!-- 10 -->
<g id="node11" class="node">
<title>10</title>
<path fill="none" stroke="#567bd8" stroke-width="2" d="M370,-396C370,-396 327,-396 327,-396 321,-396 315,-390 315,-384 315,-384 315,-372 315,-372 315,-366 321,-360 327,-360 327,-360 370,-360 370,-360 376,-360 382,-366 382,-372 382,-372 382,-384 382,-384 382,-390 376,-396 370,-396"/>
<text text-anchor="middle" x="348.5" y="-375.5" font-family="sans" font-size="10.00">Trim_raw2</text>
</g>
<!-- 10&#45;&gt;7 -->
<g id="edge14" class="edge">
<title>10&#45;&gt;7</title>
<path fill="none" stroke="grey" stroke-width="2" d="M349.74,-359.7C350.29,-351.98 350.95,-342.71 351.56,-334.11"/>
<polygon fill="grey" stroke="grey" stroke-width="2" points="355.06,-334.33 352.28,-324.1 348.07,-333.83 355.06,-334.33"/>
</g>
<!-- 11 -->
<g id="node12" class="node">
<title>11</title>
<path fill="none" stroke="#56b9d8" stroke-width="2" d="M381.5,-468C381.5,-468 315.5,-468 315.5,-468 309.5,-468 303.5,-462 303.5,-456 303.5,-456 303.5,-444 303.5,-444 303.5,-438 309.5,-432 315.5,-432 315.5,-432 381.5,-432 381.5,-432 387.5,-432 393.5,-438 393.5,-444 393.5,-444 393.5,-456 393.5,-456 393.5,-462 387.5,-468 381.5,-468"/>
<text text-anchor="middle" x="348.5" y="-453" font-family="sans" font-size="10.00">rename_reads</text>
<text text-anchor="middle" x="348.5" y="-442" font-family="sans" font-size="10.00">sample: SAC&#45;N</text>
</g>
<!-- 11&#45;&gt;10 -->
<g id="edge18" class="edge">
<title>11&#45;&gt;10</title>
<path fill="none" stroke="grey" stroke-width="2" d="M348.5,-431.7C348.5,-423.98 348.5,-414.71 348.5,-406.11"/>
<polygon fill="grey" stroke="grey" stroke-width="2" points="352,-406.1 348.5,-396.1 345,-406.1 352,-406.1"/>
</g>
<!-- 12 -->
<g id="node13" class="node">
<title>12</title>
<path fill="none" stroke="#567bd8" stroke-width="2" d="M455,-396C455,-396 412,-396 412,-396 406,-396 400,-390 400,-384 400,-384 400,-372 400,-372 400,-366 406,-360 412,-360 412,-360 455,-360 455,-360 461,-360 467,-366 467,-372 467,-372 467,-384 467,-384 467,-390 461,-396 455,-396"/>
<text text-anchor="middle" x="433.5" y="-375.5" font-family="sans" font-size="10.00">Trim_raw2</text>
</g>
<!-- 12&#45;&gt;7 -->
<g id="edge15" class="edge">
<title>12&#45;&gt;7</title>
<path fill="none" stroke="grey" stroke-width="2" d="M413.72,-359.7C403.75,-350.97 391.49,-340.24 380.64,-330.75"/>
<polygon fill="grey" stroke="grey" stroke-width="2" points="382.88,-328.06 373.05,-324.1 378.27,-333.32 382.88,-328.06"/>
</g>
<!-- 13 -->
<g id="node14" class="node">
<title>13</title>
<path fill="none" stroke="#56b9d8" stroke-width="2" d="M489,-468C489,-468 424,-468 424,-468 418,-468 412,-462 412,-456 412,-456 412,-444 412,-444 412,-438 418,-432 424,-432 424,-432 489,-432 489,-432 495,-432 501,-438 501,-444 501,-444 501,-456 501,-456 501,-462 495,-468 489,-468"/>
<text text-anchor="middle" x="456.5" y="-453" font-family="sans" font-size="10.00">rename_reads</text>
<text text-anchor="middle" x="456.5" y="-442" font-family="sans" font-size="10.00">sample: SAC&#45;S</text>
</g>
<!-- 13&#45;&gt;12 -->
<g id="edge19" class="edge">
<title>13&#45;&gt;12</title>
<path fill="none" stroke="grey" stroke-width="2" d="M450.81,-431.7C448.25,-423.9 445.17,-414.51 442.32,-405.83"/>
<polygon fill="grey" stroke="grey" stroke-width="2" points="445.57,-404.51 439.12,-396.1 438.92,-406.7 445.57,-404.51"/>
</g>
<!-- 14&#45;&gt;4 -->
<g id="edge8" class="edge">
<title>14&#45;&gt;4</title>
<path fill="none" stroke="grey" stroke-width="2" d="M223.04,-290.07C260.15,-279.72 309.94,-265.83 350.23,-254.6"/>
<polygon fill="grey" stroke="grey" stroke-width="2" points="351.3,-257.93 360,-251.87 349.42,-251.19 351.3,-257.93"/>
</g>
<!-- 15 -->
<g id="node16" class="node">
<title>15</title>
<path fill="none" stroke="#566bd8" stroke-width="2" d="M691,-324C691,-324 568,-324 568,-324 562,-324 556,-318 556,-312 556,-312 556,-300 556,-300 556,-294 562,-288 568,-288 568,-288 691,-288 691,-288 697,-288 703,-294 703,-300 703,-300 703,-312 703,-312 703,-318 697,-324 691,-324"/>
<text text-anchor="middle" x="629.5" y="-303.5" font-family="sans" font-size="10.00">add_Tax2headers_external</text>
</g>
<!-- 15&#45;&gt;4 -->
<g id="edge9" class="edge">
<title>15&#45;&gt;4</title>
<path fill="none" stroke="grey" stroke-width="2" d="M578.64,-287.97C549.31,-278.14 512.25,-265.73 481.38,-255.39"/>
<polygon fill="grey" stroke="grey" stroke-width="2" points="482.18,-251.97 471.59,-252.11 479.96,-258.61 482.18,-251.97"/>
</g>
<!-- 16 -->
<g id="node17" class="node">
<title>16</title>
<path fill="none" stroke="#56c9d8" stroke-width="2" d="M733,-396C733,-396 624,-396 624,-396 618,-396 612,-390 612,-384 612,-384 612,-372 612,-372 612,-366 618,-360 624,-360 624,-360 733,-360 733,-360 739,-360 745,-366 745,-372 745,-372 745,-384 745,-384 745,-390 739,-396 733,-396"/>
<text text-anchor="middle" x="678.5" y="-375.5" font-family="sans" font-size="10.00">trinity_longest_external</text>
</g>
<!-- 16&#45;&gt;15 -->
<g id="edge21" class="edge">
<title>16&#45;&gt;15</title>
<path fill="none" stroke="grey" stroke-width="2" d="M666.39,-359.7C660.63,-351.47 653.64,-341.48 647.29,-332.42"/>
<polygon fill="grey" stroke="grey" stroke-width="2" points="650.08,-330.29 641.47,-324.1 644.34,-334.3 650.08,-330.29"/>
</g>
<!-- 17 -->
<g id="node18" class="node">
<title>17</title>
<path fill="none" stroke="#afd856" stroke-width="2" d="M701.5,-468C701.5,-468 581.5,-468 581.5,-468 575.5,-468 569.5,-462 569.5,-456 569.5,-456 569.5,-444 569.5,-444 569.5,-438 575.5,-432 581.5,-432 581.5,-432 701.5,-432 701.5,-432 707.5,-432 713.5,-438 713.5,-444 713.5,-444 713.5,-456 713.5,-456 713.5,-462 707.5,-468 701.5,-468"/>
<text text-anchor="middle" x="641.5" y="-447.5" font-family="sans" font-size="10.00">trinity_assembly_external</text>
</g>
<!-- 17&#45;&gt;16 -->
<g id="edge22" class="edge">
<title>17&#45;&gt;16</title>
<path fill="none" stroke="grey" stroke-width="2" d="M650.65,-431.7C654.9,-423.64 660.06,-413.89 664.77,-404.98"/>
<polygon fill="grey" stroke="grey" stroke-width="2" points="667.88,-406.58 669.46,-396.1 661.69,-403.31 667.88,-406.58"/>
</g>
<!-- 18 -->
<g id="node19" class="node">
<title>18</title>
<path fill="none" stroke="#d86656" stroke-width="2" d="M706.5,-540C706.5,-540 522.5,-540 522.5,-540 516.5,-540 510.5,-534 510.5,-528 510.5,-528 510.5,-516 510.5,-516 510.5,-510 516.5,-504 522.5,-504 522.5,-504 706.5,-504 706.5,-504 712.5,-504 718.5,-510 718.5,-516 718.5,-516 718.5,-528 718.5,-528 718.5,-534 712.5,-540 706.5,-540"/>
<text text-anchor="middle" x="614.5" y="-525" font-family="sans" font-size="10.00">rename_reads_external</text>
<text text-anchor="middle" x="614.5" y="-514" font-family="sans" font-size="10.00">sample: Tetraclita_japonica_formosana</text>
</g>
<!-- 18&#45;&gt;17 -->
<g id="edge23" class="edge">
<title>18&#45;&gt;17</title>
<path fill="none" stroke="grey" stroke-width="2" d="M621.17,-503.7C624.21,-495.81 627.88,-486.3 631.26,-477.55"/>
<polygon fill="grey" stroke="grey" stroke-width="2" points="634.57,-478.69 634.9,-468.1 628.04,-476.17 634.57,-478.69"/>
</g>
<!-- 19 -->
<g id="node20" class="node">
<title>19</title>
<path fill="none" stroke="#566bd8" stroke-width="2" d="M876,-324C876,-324 753,-324 753,-324 747,-324 741,-318 741,-312 741,-312 741,-300 741,-300 741,-294 747,-288 753,-288 753,-288 876,-288 876,-288 882,-288 888,-294 888,-300 888,-300 888,-312 888,-312 888,-318 882,-324 876,-324"/>
<text text-anchor="middle" x="814.5" y="-303.5" font-family="sans" font-size="10.00">add_Tax2headers_external</text>
</g>
<!-- 19&#45;&gt;4 -->
<g id="edge10" class="edge">
<title>19&#45;&gt;4</title>
<path fill="none" stroke="grey" stroke-width="2" d="M740.85,-291.92C669.42,-279.22 561.77,-260.1 491.31,-247.58"/>
<polygon fill="grey" stroke="grey" stroke-width="2" points="491.66,-244.09 481.2,-245.78 490.43,-250.98 491.66,-244.09"/>
</g>
<!-- 20 -->
<g id="node21" class="node">
<title>20</title>
<path fill="none" stroke="#56c9d8" stroke-width="2" d="M884,-396C884,-396 775,-396 775,-396 769,-396 763,-390 763,-384 763,-384 763,-372 763,-372 763,-366 769,-360 775,-360 775,-360 884,-360 884,-360 890,-360 896,-366 896,-372 896,-372 896,-384 896,-384 896,-390 890,-396 884,-396"/>
<text text-anchor="middle" x="829.5" y="-375.5" font-family="sans" font-size="10.00">trinity_longest_external</text>
</g>
<!-- 20&#45;&gt;19 -->
<g id="edge24" class="edge">
<title>20&#45;&gt;19</title>
<path fill="none" stroke="grey" stroke-width="2" d="M825.79,-359.7C824.14,-351.98 822.15,-342.71 820.31,-334.11"/>
<polygon fill="grey" stroke="grey" stroke-width="2" points="823.68,-333.15 818.17,-324.1 816.84,-334.62 823.68,-333.15"/>
</g>
<!-- 21 -->
<g id="node22" class="node">
<title>21</title>
<path fill="none" stroke="#afd856" stroke-width="2" d="M889.5,-468C889.5,-468 769.5,-468 769.5,-468 763.5,-468 757.5,-462 757.5,-456 757.5,-456 757.5,-444 757.5,-444 757.5,-438 763.5,-432 769.5,-432 769.5,-432 889.5,-432 889.5,-432 895.5,-432 901.5,-438 901.5,-444 901.5,-444 901.5,-456 901.5,-456 901.5,-462 895.5,-468 889.5,-468"/>
<text text-anchor="middle" x="829.5" y="-447.5" font-family="sans" font-size="10.00">trinity_assembly_external</text>
</g>
<!-- 21&#45;&gt;20 -->
<g id="edge25" class="edge">
<title>21&#45;&gt;20</title>
<path fill="none" stroke="grey" stroke-width="2" d="M829.5,-431.7C829.5,-423.98 829.5,-414.71 829.5,-406.11"/>
<polygon fill="grey" stroke="grey" stroke-width="2" points="833,-406.1 829.5,-396.1 826,-406.1 833,-406.1"/>
</g>
<!-- 22 -->
<g id="node23" class="node">
<title>22</title>
<path fill="none" stroke="#d86656" stroke-width="2" d="M910,-540C910,-540 749,-540 749,-540 743,-540 737,-534 737,-528 737,-528 737,-516 737,-516 737,-510 743,-504 749,-504 749,-504 910,-504 910,-504 916,-504 922,-510 922,-516 922,-516 922,-528 922,-528 922,-534 916,-540 910,-540"/>
<text text-anchor="middle" x="829.5" y="-525" font-family="sans" font-size="10.00">rename_reads_external</text>
<text text-anchor="middle" x="829.5" y="-514" font-family="sans" font-size="10.00">sample: Amphibalanus_amphitrite</text>
</g>
<!-- 22&#45;&gt;21 -->
<g id="edge26" class="edge">
<title>22&#45;&gt;21</title>
<path fill="none" stroke="grey" stroke-width="2" d="M829.5,-503.7C829.5,-495.98 829.5,-486.71 829.5,-478.11"/>
<polygon fill="grey" stroke="grey" stroke-width="2" points="833,-478.1 829.5,-468.1 826,-478.1 833,-478.1"/>
</g>
<!-- 23 -->
<g id="node24" class="node">
<title>23</title>
<path fill="none" stroke="#566bd8" stroke-width="2" d="M1063,-324C1063,-324 940,-324 940,-324 934,-324 928,-318 928,-312 928,-312 928,-300 928,-300 928,-294 934,-288 940,-288 940,-288 1063,-288 1063,-288 1069,-288 1075,-294 1075,-300 1075,-300 1075,-312 1075,-312 1075,-318 1069,-324 1063,-324"/>
<text text-anchor="middle" x="1001.5" y="-303.5" font-family="sans" font-size="10.00">add_Tax2headers_external</text>
</g>
<!-- 23&#45;&gt;4 -->
<g id="edge11" class="edge">
<title>23&#45;&gt;4</title>
<path fill="none" stroke="grey" stroke-width="2" d="M927.85,-292.6C917.34,-290.97 906.65,-289.39 896.5,-288 752.97,-268.4 584.34,-250.93 491.25,-241.77"/>
<polygon fill="grey" stroke="grey" stroke-width="2" points="491.4,-238.27 481.11,-240.78 490.72,-245.24 491.4,-238.27"/>
</g>
<!-- 24 -->
<g id="node25" class="node">
<title>24</title>
<path fill="none" stroke="#56c9d8" stroke-width="2" d="M1059,-396C1059,-396 950,-396 950,-396 944,-396 938,-390 938,-384 938,-384 938,-372 938,-372 938,-366 944,-360 950,-360 950,-360 1059,-360 1059,-360 1065,-360 1071,-366 1071,-372 1071,-372 1071,-384 1071,-384 1071,-390 1065,-396 1059,-396"/>
<text text-anchor="middle" x="1004.5" y="-375.5" font-family="sans" font-size="10.00">trinity_longest_external</text>
</g>
<!-- 24&#45;&gt;23 -->
<g id="edge27" class="edge">
<title>24&#45;&gt;23</title>
<path fill="none" stroke="grey" stroke-width="2" d="M1003.76,-359.7C1003.43,-351.98 1003.03,-342.71 1002.66,-334.11"/>
<polygon fill="grey" stroke="grey" stroke-width="2" points="1006.16,-333.95 1002.23,-324.1 999.16,-334.25 1006.16,-333.95"/>
</g>
<!-- 25 -->
<g id="node26" class="node">
<title>25</title>
<path fill="none" stroke="#afd856" stroke-width="2" d="M1067.5,-468C1067.5,-468 947.5,-468 947.5,-468 941.5,-468 935.5,-462 935.5,-456 935.5,-456 935.5,-444 935.5,-444 935.5,-438 941.5,-432 947.5,-432 947.5,-432 1067.5,-432 1067.5,-432 1073.5,-432 1079.5,-438 1079.5,-444 1079.5,-444 1079.5,-456 1079.5,-456 1079.5,-462 1073.5,-468 1067.5,-468"/>
<text text-anchor="middle" x="1007.5" y="-447.5" font-family="sans" font-size="10.00">trinity_assembly_external</text>
</g>
<!-- 25&#45;&gt;24 -->
<g id="edge28" class="edge">
<title>25&#45;&gt;24</title>
<path fill="none" stroke="grey" stroke-width="2" d="M1006.76,-431.7C1006.43,-423.98 1006.03,-414.71 1005.66,-406.11"/>
<polygon fill="grey" stroke="grey" stroke-width="2" points="1009.16,-405.95 1005.23,-396.1 1002.16,-406.25 1009.16,-405.95"/>
</g>
<!-- 26 -->
<g id="node27" class="node">
<title>26</title>
<path fill="none" stroke="#d86656" stroke-width="2" d="M1085,-540C1085,-540 952,-540 952,-540 946,-540 940,-534 940,-528 940,-528 940,-516 940,-516 940,-510 946,-504 952,-504 952,-504 1085,-504 1085,-504 1091,-504 1097,-510 1097,-516 1097,-516 1097,-528 1097,-528 1097,-534 1091,-540 1085,-540"/>
<text text-anchor="middle" x="1018.5" y="-525" font-family="sans" font-size="10.00">rename_reads_external</text>
<text text-anchor="middle" x="1018.5" y="-514" font-family="sans" font-size="10.00">sample: Pollicipes_pollicipes</text>
</g>
<!-- 26&#45;&gt;25 -->
<g id="edge29" class="edge">
<title>26&#45;&gt;25</title>
<path fill="none" stroke="grey" stroke-width="2" d="M1015.78,-503.7C1014.57,-495.98 1013.11,-486.71 1011.76,-478.11"/>
<polygon fill="grey" stroke="grey" stroke-width="2" points="1015.2,-477.44 1010.19,-468.1 1008.28,-478.53 1015.2,-477.44"/>
</g>
</g>
</svg>
